<svg width="105" height="34" viewBox="0 0 105 34" fill="none" xmlns="http://www.w3.org/2000/svg">
<g clip-path="url(#clip0)">
<path d="M0 29.788V3.49599C0.120111 2.68203 0.471276 1.91962 1.01172 1.29924C1.55216 0.678856 2.25914 0.226542 3.04895 -0.00401306H101.228C103.069 0.639987 104.267 1.79601 104.269 3.86601C104.276 12.3747 104.276 20.8837 104.269 29.393C104.287 29.9091 104.197 30.4233 104.006 30.903C103.815 31.3827 103.527 31.8175 103.159 32.1798C102.791 32.5421 102.352 32.8241 101.869 33.0078C101.386 33.1915 100.871 33.2729 100.355 33.247C78.355 33.247 56.355 33.247 34.355 33.247H33.468V32.173C33.468 27.6397 33.468 23.1063 33.468 18.573C33.468 17.487 33.223 17.247 32.12 17.247C26.0487 17.247 19.977 17.247 13.905 17.247C12.75 17.247 12.566 17.428 12.566 18.547C12.566 23.181 12.555 27.816 12.577 32.447C12.577 33.075 12.391 33.269 11.754 33.26C9.13803 33.227 6.52003 33.281 3.90503 33.222C3.22643 33.1835 2.56303 33.0059 1.95605 32.7C1.42691 32.3991 0.974794 31.9795 0.635376 31.4742C0.295958 30.9689 0.0784472 30.3917 0 29.788ZM29.625 4.71901L29.397 4.619C29.2395 4.78575 29.0954 4.96464 28.9659 5.15401C28.5729 5.83301 28.18 6.514 27.826 7.214C27.7985 7.31052 27.7489 7.3993 27.6812 7.47337C27.6134 7.54745 27.5295 7.60478 27.4358 7.64085C27.3421 7.67692 27.2413 7.69075 27.1414 7.68123C27.0414 7.67171 26.9452 7.63912 26.86 7.58601C24.37 6.56329 21.5778 6.56075 19.0861 7.57899C19.0007 7.63148 18.9044 7.66364 18.8047 7.67296C18.7049 7.68228 18.6043 7.66854 18.5107 7.63277C18.4172 7.597 18.3331 7.54017 18.265 7.46669C18.1969 7.39321 18.1466 7.30503 18.118 7.209C17.733 6.468 17.318 5.74 16.884 5.028C16.791 4.876 16.556 4.80999 16.384 4.70399C16.3518 4.90359 16.3599 5.10762 16.408 5.304C16.7543 6.00876 17.1365 6.69533 17.553 7.36101C17.917 7.92501 17.769 8.21299 17.23 8.56099C15.0424 9.94786 13.4745 12.1255 12.853 14.64C12.596 15.614 12.811 15.89 13.827 15.89C19.9224 15.89 26.0177 15.89 32.113 15.89C33.113 15.89 33.33 15.598 33.074 14.623C32.4372 12.0851 30.8424 9.89243 28.624 8.50499C28.124 8.18199 28.039 7.913 28.358 7.412C28.765 6.772 29.115 6.09501 29.458 5.41801C29.5421 5.19273 29.5982 4.95797 29.625 4.71901ZM6.92505 24.164C6.92505 25.734 6.90803 27.304 6.93103 28.873C6.93331 29.373 7.10484 29.8576 7.41772 30.2476C7.73061 30.6377 8.16642 30.9103 8.65405 31.021C9.10263 31.1221 9.57178 31.0748 9.99121 30.8864C10.4106 30.698 10.7576 30.3785 10.98 29.976C11.2172 29.4759 11.3412 28.9295 11.343 28.376C11.378 25.566 11.361 22.756 11.355 19.946C11.3529 19.6939 11.3259 19.4427 11.274 19.196C11.2068 18.6366 10.9289 18.1239 10.4969 17.7622C10.065 17.4005 9.51145 17.217 8.94897 17.249C8.37463 17.3098 7.84531 17.5879 7.46924 18.0262C7.09317 18.4646 6.89883 19.0301 6.92603 19.607C6.91903 21.126 6.92696 22.645 6.92896 24.164H6.92505ZM38.981 24.177H38.969C38.969 22.46 39.052 20.737 38.939 19.028C38.873 18.5036 38.6062 18.0253 38.1948 17.6935C37.7834 17.3618 37.2595 17.2024 36.733 17.249C36.1822 17.2845 35.6648 17.5258 35.2836 17.925C34.9024 18.3242 34.6852 18.8521 34.675 19.404C34.657 22.5687 34.657 25.7337 34.675 28.899C34.677 29.4521 34.8871 29.9842 35.2637 30.3893C35.6402 30.7944 36.1556 31.0428 36.707 31.085C37.2447 31.1253 37.7773 30.9579 38.1953 30.6173C38.6133 30.2767 38.8849 29.7888 38.954 29.254C39.067 27.567 38.985 25.873 38.985 24.173L38.981 24.177ZM57.629 26.092C57.552 25.859 57.507 25.692 57.441 25.53C56.193 22.497 54.912 19.476 53.717 16.422C53.455 15.753 53.042 15.839 52.542 15.797C52.017 15.752 51.799 15.957 51.619 16.436C50.49 19.436 49.319 22.418 48.173 25.409C48.089 25.627 48.036 25.857 47.963 26.099C49.486 26.215 49.481 26.214 49.944 24.971C50.172 24.358 50.257 23.5 50.705 23.213C51.195 22.898 52.027 23.101 52.71 23.099C54.788 23.093 54.788 23.099 55.455 24.829C56.007 26.248 56.0071 26.248 57.6331 26.092H57.629ZM71.097 19.183C68.964 17.752 66.546 18.704 66.084 21.123C65.984 21.7686 65.9595 22.4237 66.011 23.075C66.123 25.538 68.6929 27.414 71.1379 25.598L71.249 26.105H72.469V15.863H71.1L71.097 19.183ZM94.948 15.852V19.159C93.437 18.406 92.691 18.344 91.738 18.709C89.343 19.625 89.183 23.965 90.891 25.442C91.3446 25.8367 91.8859 26.1171 92.47 26.26C92.9041 26.3762 93.3618 26.3706 93.793 26.2438C94.2241 26.117 94.6119 25.8738 94.9139 25.541C95.1139 26.231 95.3139 26.287 96.2939 26.022V15.852H94.948ZM85.713 22.352C85.713 22.27 85.697 22.094 85.688 21.917C85.6677 21.0353 85.3161 20.1935 84.7032 19.5592C84.0904 18.925 83.2612 18.5448 82.3806 18.4944C81.5001 18.4439 80.6328 18.7269 79.9515 19.2871C79.2702 19.8472 78.8248 20.6433 78.704 21.517C78.639 22.0191 78.6293 22.5268 78.675 23.031C78.6944 23.5913 78.8495 24.1385 79.1271 24.6257C79.4046 25.1128 79.7962 25.5252 80.2683 25.8276C80.7404 26.1299 81.279 26.3132 81.8375 26.3615C82.3961 26.4098 82.9579 26.3218 83.475 26.105C85.007 25.542 85.689 24.426 85.717 22.356L85.713 22.352ZM59.894 26.113C59.894 24.642 59.881 23.23 59.903 21.819C59.905 21.4409 59.9727 21.066 60.103 20.711C60.2618 20.3614 60.5341 20.0758 60.8759 19.9008C61.2176 19.7258 61.6085 19.6715 61.985 19.747C62.1509 19.7549 62.3137 19.7957 62.4637 19.867C62.6138 19.9382 62.7482 20.0386 62.8591 20.1622C62.9701 20.2859 63.0555 20.4303 63.1102 20.5871C63.165 20.744 63.188 20.9102 63.178 21.076C63.228 22.086 63.231 23.098 63.245 24.11C63.254 24.781 63.245 25.452 63.245 26.098H64.605C64.605 24.213 64.663 22.369 64.583 20.531C64.5789 20.0526 64.4029 19.5916 64.0872 19.2321C63.7714 18.8726 63.3369 18.6387 62.863 18.573C62.3728 18.4331 61.8552 18.4179 61.3575 18.5286C60.8599 18.6393 60.3977 18.8725 60.0129 19.207C59.9508 19.2514 59.8837 19.2883 59.813 19.317L59.683 18.701H58.5V26.114L59.894 26.113ZM75.7629 26.104C75.7629 24.691 75.7459 23.332 75.7629 21.974C75.7899 20.237 76.395 19.749 78.072 20.117L78.522 18.917C78.3125 18.7436 78.0691 18.616 77.8073 18.5424C77.5454 18.4688 77.2711 18.4509 77.002 18.4898C76.7328 18.5287 76.4748 18.6236 76.2445 18.7683C76.0142 18.913 75.8168 19.1044 75.665 19.33L75.548 18.696H74.386V26.103L75.7629 26.104ZM88.38 26.104V18.697H87.088V26.104H88.38ZM48.5081 12.176C49.8261 11.995 51.314 12.684 52.175 11.221C52.4705 10.7551 52.6217 10.2124 52.6097 9.66087C52.5978 9.10936 52.4233 8.57364 52.108 8.12099C51.197 6.77999 49.7761 7.435 48.5081 7.283V12.176ZM61.365 8.632C61.065 8.649 60.777 8.60801 60.748 8.67601C60.462 9.35101 60.219 10.044 59.9 10.903C59.718 10.203 59.6 9.644 59.418 9.11C59.352 8.918 59.094 8.63201 58.97 8.65401C58.853 8.68564 58.7445 8.74276 58.6522 8.82124C58.5599 8.89973 58.4861 8.99763 58.436 9.10799C58.23 9.66499 58.106 10.251 57.949 10.826C57.74 10.3907 57.5726 9.9367 57.449 9.46999C57.309 9.04699 57.341 8.37501 56.484 8.73601C56.809 9.78801 57.1181 10.824 57.4611 11.848C57.5004 11.9264 57.5588 11.9936 57.631 12.0434C57.7032 12.0932 57.7868 12.124 57.874 12.133C57.9733 12.1196 58.0684 12.0839 58.1519 12.0285C58.2354 11.973 58.3051 11.8993 58.356 11.813C58.556 11.224 58.695 10.613 58.899 9.84801L59.568 12.259C59.868 12.108 60.268 12.039 60.339 11.849C60.715 10.842 61.008 9.80099 61.369 8.63899L61.365 8.632ZM76.427 8.7C75.604 8.432 75.1519 8.474 74.6949 8.882C74.3184 9.29506 74.114 9.83647 74.1237 10.3953C74.1333 10.9542 74.3563 11.4882 74.7469 11.888C75.0268 12.1023 75.3641 12.2283 75.7159 12.25C76.2233 12.2301 76.7283 12.1695 77.226 12.069V7.269C76.053 7.335 76.8 8.25802 76.431 8.70702L76.427 8.7ZM72.827 9.85201C72.304 9.96 71.784 10.044 71.277 10.176C71.0238 10.2193 70.7964 10.3567 70.6404 10.5608C70.4844 10.7648 70.4114 11.0204 70.436 11.276C70.4341 11.405 70.4591 11.533 70.5095 11.6518C70.5599 11.7705 70.6346 11.8775 70.7288 11.9657C70.8229 12.0539 70.9345 12.1215 71.0563 12.1641C71.1781 12.2067 71.3074 12.2233 71.436 12.213C72.1385 12.1926 72.8395 12.1355 73.536 12.042C73.536 11.227 73.565 10.42 73.528 9.61601C73.491 8.81201 73.0821 8.499 72.1281 8.506C71.1561 8.513 70.69 8.87499 70.616 9.84999C70.8845 9.7394 71.1401 9.59957 71.3781 9.433C71.9441 8.925 72.542 9.059 72.827 9.86V9.85201ZM81.5551 10.37C81.5195 10.6091 81.5367 10.8531 81.6055 11.0848C81.6742 11.3166 81.7928 11.5305 81.953 11.7115C82.1132 11.8925 82.311 12.0363 82.5326 12.1328C82.7542 12.2293 82.9943 12.2761 83.236 12.27C83.4705 12.2687 83.7022 12.2186 83.9163 12.1228C84.1303 12.0271 84.3221 11.8878 84.4794 11.7139C84.6367 11.5399 84.756 11.3352 84.8298 11.1126C84.9036 10.89 84.9302 10.6545 84.908 10.421C84.931 10.1818 84.9041 9.94048 84.8289 9.71227C84.7537 9.48405 84.6319 9.27397 84.4712 9.09532C84.3105 8.91667 84.1144 8.77335 83.8954 8.67448C83.6764 8.57562 83.4392 8.52337 83.199 8.52101C82.9646 8.51962 82.7325 8.56827 82.5184 8.66374C82.3043 8.75921 82.1131 8.89929 81.9575 9.0746C81.8019 9.24992 81.6855 9.45643 81.6161 9.68034C81.5467 9.90426 81.5259 10.1404 81.5551 10.373V10.37ZM52.999 10.293C52.987 11.516 53.617 12.253 54.687 12.267C54.9214 12.2635 55.1527 12.2117 55.3662 12.1149C55.5798 12.0182 55.7711 11.8785 55.9283 11.7046C56.0856 11.5307 56.2052 11.3262 56.28 11.104C56.3548 10.8818 56.3831 10.6466 56.363 10.413C56.3862 10.1736 56.3593 9.93187 56.2839 9.70338C56.2086 9.4749 56.0866 9.26462 55.9255 9.08589C55.7645 8.90717 55.5679 8.76393 55.3485 8.6653C55.1291 8.56667 54.8916 8.51481 54.651 8.51302C54.4223 8.51283 54.1961 8.56002 53.9866 8.65163C53.7771 8.74323 53.5888 8.87725 53.4337 9.04524C53.2786 9.21324 53.16 9.41157 53.0853 9.6277C53.0107 9.84383 52.9816 10.0731 53 10.301L52.999 10.293ZM66.725 10.38C66.752 11.568 67.376 12.262 68.42 12.267C68.6545 12.2619 68.8855 12.2087 69.0985 12.1105C69.3115 12.0124 69.5021 11.8715 69.6583 11.6966C69.8146 11.5217 69.9333 11.3165 70.0068 11.0938C70.0804 10.8711 70.1074 10.6356 70.0861 10.402C70.1079 10.1623 70.0794 9.92075 70.0027 9.69264C69.926 9.46453 69.8027 9.2549 69.6405 9.0771C69.4783 8.8993 69.2809 8.75722 69.0608 8.65993C68.8407 8.56263 68.6027 8.51227 68.3621 8.51201C68.1265 8.51311 67.8939 8.56433 67.6797 8.66231C67.4655 8.76028 67.2746 8.90274 67.1198 9.08022C66.9649 9.25769 66.8496 9.46611 66.7815 9.6916C66.7134 9.9171 66.6942 10.1545 66.725 10.388V10.38ZM61.765 12.097C62.352 12.269 62.507 12.044 62.485 11.543C62.4282 10.9903 62.4477 10.4324 62.543 9.88499C62.6101 9.72716 62.7129 9.587 62.8431 9.47545C62.9734 9.3639 63.1277 9.28399 63.2939 9.24199C63.4549 9.20799 63.859 9.62401 63.907 9.88301C63.9826 10.4585 64 11.0401 63.959 11.619C63.948 12.105 64.136 12.252 64.641 12.074C64.6824 11.2214 64.6706 10.3671 64.606 9.51601C64.561 9.32195 64.4697 9.14168 64.3397 8.99068C64.2098 8.83967 64.0452 8.72244 63.86 8.649C63.1628 8.56929 62.4597 8.55555 61.76 8.60799L61.765 12.097ZM80.782 12.117V9.37199C81.065 9.09999 82.206 8.978 80.918 8.558C80.8764 8.51821 80.8455 8.4686 80.828 8.41374C80.8105 8.35888 80.8071 8.30053 80.818 8.244C80.9357 8.11119 81.0702 7.99422 81.218 7.89601L81.749 7.464L81.549 7.12502C81.0903 7.21539 80.6484 7.37629 80.239 7.60201C79.895 7.867 80.163 8.57999 79.58 8.80199C79.566 8.80699 79.614 9.10999 79.665 9.12199C80.205 9.23699 80.0251 9.65799 80.0341 9.97499C80.0531 10.675 80.04 11.375 80.04 12.114L80.782 12.117ZM65.4449 12.167L66.155 12.087C66.155 10.605 66.145 9.18702 66.155 7.77602C66.161 7.21602 65.8639 7.24 65.4399 7.355L65.4449 12.167ZM85.528 8.636V12.079C86.013 12.256 86.184 12.107 86.183 11.624C86.1636 11.0474 86.2035 10.4704 86.302 9.90199C86.351 9.66299 86.671 9.46199 86.902 9.28499C87.107 9.15045 87.3231 9.03369 87.548 8.93599L87.448 8.636H85.528ZM87.089 17.363H88.381V15.863H87.089V17.363Z" fill="#FF779D"/>
<path d="M19.122 11.717C19.111 11.9575 19.0084 12.1847 18.8353 12.352C18.6622 12.5194 18.4317 12.6142 18.1909 12.617C18.0578 12.6251 17.9244 12.6057 17.7991 12.5598C17.6738 12.5139 17.5594 12.4427 17.4629 12.3505C17.3665 12.2582 17.2901 12.1471 17.2387 12.024C17.1872 11.9008 17.1618 11.7684 17.164 11.635C17.1547 11.5073 17.1716 11.3791 17.2135 11.2581C17.2554 11.1371 17.3215 11.026 17.4077 10.9314C17.494 10.8368 17.5986 10.7608 17.7152 10.7079C17.8318 10.6551 17.958 10.6265 18.086 10.624C18.2275 10.6219 18.368 10.6491 18.4984 10.7041C18.6289 10.759 18.7465 10.8404 18.8439 10.9431C18.9413 11.0459 19.0162 11.1677 19.0641 11.3009C19.112 11.4341 19.1317 11.5758 19.122 11.717Z" fill="#FF779D"/>
<path d="M28.802 11.626C28.7973 11.8842 28.6937 12.1308 28.5125 12.3149C28.3312 12.4989 28.0862 12.6063 27.828 12.615C27.5588 12.6177 27.2994 12.5143 27.1058 12.3271C26.9123 12.14 26.8004 11.8841 26.7941 11.615C26.7968 11.356 26.9 11.1081 27.0819 10.9236C27.2638 10.7392 27.5101 10.6325 27.769 10.626C28.0382 10.623 28.2977 10.7264 28.4911 10.9137C28.6845 11.1009 28.7962 11.3569 28.802 11.626Z" fill="#FF779D"/>
<path d="M54.2859 21.822H51.105L52.668 17.456L54.2859 21.822Z" fill="#FF779D"/>
<path d="M71.3151 22.418C71.2154 22.997 71.0641 23.566 70.8631 24.118C70.7437 24.4088 70.5446 24.6598 70.2886 24.8422C70.0326 25.0245 69.7302 25.1306 69.4164 25.1483C69.1026 25.166 68.7901 25.0945 68.5153 24.9421C68.2404 24.7897 68.0143 24.5626 67.8631 24.287C67.5136 23.7239 67.3247 23.076 67.3168 22.4133C67.3089 21.7506 67.4821 21.0983 67.818 20.527C67.9569 20.2594 68.1672 20.0354 68.4256 19.88C68.6839 19.7246 68.9804 19.6438 69.2819 19.6466C69.5834 19.6494 69.8782 19.7357 70.1337 19.8959C70.3891 20.056 70.5952 20.2839 70.729 20.554C70.9898 21.1529 71.1863 21.7777 71.3151 22.418Z" fill="#FF779D"/>
<path d="M95.083 22.381C95.0269 22.8785 94.934 23.3712 94.8051 23.855C94.7131 24.2014 94.5139 24.51 94.2361 24.7364C93.9583 24.9629 93.616 25.0957 93.2581 25.116C92.8877 25.1414 92.5187 25.0485 92.2044 24.8509C91.8901 24.6532 91.6466 24.3609 91.5091 24.016C91.2799 23.4935 91.1625 22.9288 91.1646 22.3582C91.1666 21.7877 91.288 21.2238 91.521 20.703C91.6491 20.3963 91.8645 20.134 92.1405 19.9488C92.4166 19.7636 92.741 19.6638 93.0734 19.6616C93.4058 19.6595 93.7315 19.7552 94.0099 19.9368C94.2883 20.1184 94.5071 20.3779 94.6391 20.683C94.8304 21.2368 94.9788 21.8044 95.083 22.381Z" fill="#FF779D"/>
<path d="M84.3621 22.36C84.2945 22.8131 84.2033 23.2624 84.089 23.706C83.9769 24.11 83.7351 24.4659 83.4008 24.7189C83.0665 24.9718 82.6583 25.1079 82.239 25.106C81.8191 25.1364 81.4014 25.0227 81.0548 24.7836C80.7083 24.5445 80.4537 24.1944 80.333 23.791C79.9908 22.8866 79.9929 21.8879 80.339 20.985C80.4729 20.6003 80.7215 20.2659 81.0512 20.0267C81.3808 19.7875 81.7758 19.655 82.183 19.647C82.6031 19.6541 83.0105 19.7925 83.3482 20.0426C83.6858 20.2927 83.9368 20.6422 84.0661 21.042C84.189 21.4755 84.2878 21.9155 84.3621 22.36Z" fill="#FF779D"/>
<path d="M49.276 11.506V8.031C50.037 8.072 50.8219 7.75402 51.4089 8.47702C51.6143 8.83923 51.7297 9.24547 51.7454 9.66156C51.761 10.0776 51.6764 10.4914 51.4989 10.868C50.9699 11.68 50.133 11.464 49.276 11.506Z" fill="#FF779D"/>
<path d="M76.5631 10.504C76.5361 11.009 76.463 11.548 75.753 11.595C75.253 11.627 74.871 11.084 74.863 10.401C74.856 9.74801 75.2631 9.15999 75.7201 9.15699C76.2331 9.15299 76.5721 9.67501 76.5631 10.504Z" fill="#FF779D"/>
<path d="M72.772 10.53C72.72 11.319 72.336 11.762 71.767 11.658C71.567 11.62 71.395 11.387 71.21 11.244C71.342 11.087 71.444 10.85 71.61 10.789C71.9907 10.6751 72.379 10.5885 72.772 10.53Z" fill="#FF779D"/>
<path d="M82.308 10.372C82.314 9.613 82.6931 9.12699 83.2531 9.15899C83.5291 9.21099 83.7753 9.36544 83.9422 9.59133C84.1091 9.81723 84.1844 10.0979 84.153 10.377C84.153 11.115 83.781 11.611 83.215 11.61C82.63 11.61 82.303 11.161 82.308 10.372Z" fill="#FF779D"/>
<path d="M53.7409 10.357C53.7549 9.663 54.1309 9.16398 54.6479 9.15698C55.1649 9.14998 55.6249 9.732 55.6219 10.4C55.6219 11.1 55.1939 11.633 54.6469 11.622C54.0999 11.611 53.7239 11.103 53.7409 10.357Z" fill="#FF779D"/>
<path d="M67.4631 10.389C67.4631 9.66798 67.8761 9.13599 68.4161 9.15699C68.6919 9.20987 68.9387 9.36202 69.1099 9.58463C69.2811 9.80724 69.3647 10.0849 69.345 10.365C69.3663 10.5091 69.3588 10.656 69.3228 10.7972C69.2868 10.9384 69.2232 11.0711 69.1355 11.1874C69.0479 11.3038 68.9381 11.4016 68.8123 11.4752C68.6866 11.5488 68.5474 11.5966 68.403 11.616C67.828 11.622 67.4581 11.139 67.4631 10.389Z" fill="#FF779D"/>
</g>
<defs>
<clipPath id="clip0">
<rect width="104.275" height="33.267" fill="white"/>
</clipPath>
</defs>
</svg>
