<svg width="105" height="37" viewBox="0 0 105 37" fill="none" xmlns="http://www.w3.org/2000/svg">
<g clip-path="url(#clip0)">
<path d="M52.073 36.728C36.449 36.728 20.8239 36.7 5.19993 36.756C4.51108 36.7707 3.82641 36.6455 3.18736 36.3879C2.5483 36.1303 1.96816 35.7458 1.48204 35.2575C0.995907 34.7692 0.613981 34.1874 0.359233 33.5472C0.104485 32.907 -0.0177644 32.2218 -2.02793e-05 31.533C0.0349797 27.992 0.0239807 24.449 0.0259807 20.907C0.029314 15.6696 0.029314 10.4326 0.0259807 5.19598C-0.0157182 4.50326 0.0897445 3.80956 0.335551 3.16058C0.581358 2.5116 0.961859 1.92206 1.45201 1.43078C1.94215 0.939501 2.53089 0.557634 3.1793 0.310329C3.82771 0.0630234 4.52115 -0.0441008 5.21397 -0.00400238H99.026C99.7241 -0.0541458 100.425 0.0461242 101.081 0.290065C101.737 0.534006 102.333 0.915919 102.829 1.41C103.325 1.90408 103.709 2.49883 103.955 3.15405C104.201 3.80926 104.304 4.50969 104.256 5.208C104.256 14.008 104.228 22.808 104.273 31.608C104.288 32.2858 104.165 32.9597 103.912 33.5888C103.66 34.2179 103.282 34.7892 102.802 35.2683C102.323 35.7474 101.751 36.1243 101.121 36.3762C100.492 36.6281 99.8178 36.7498 99.14 36.734C83.4553 36.7093 67.7663 36.7073 52.073 36.728ZM52.073 35.741H99.202C99.747 35.7735 100.293 35.6897 100.803 35.4951C101.313 35.3005 101.776 34.9997 102.161 34.6125C102.546 34.2252 102.844 33.7606 103.035 33.2493C103.227 32.738 103.308 32.1918 103.272 31.647C103.272 22.847 103.272 14.047 103.272 5.24697C103.328 4.67441 103.256 4.09663 103.062 3.55502C102.868 3.01341 102.557 2.52141 102.151 2.11425C101.744 1.7071 101.253 1.39486 100.712 1.19998C100.17 1.00509 99.5927 0.932371 99.02 0.986995H5.21995C4.65864 0.942825 4.09438 1.02032 3.56578 1.21423C3.03718 1.40813 2.55668 1.71387 2.15708 2.11053C1.75748 2.50719 1.44828 2.98542 1.25047 3.51257C1.05266 4.03972 0.970946 4.60338 1.01097 5.165C1.01097 13.965 1.04797 22.765 0.984965 31.565C0.982158 32.1195 1.08955 32.669 1.30101 33.1817C1.51246 33.6943 1.82371 34.1598 2.21665 34.551C2.6096 34.9423 3.07643 35.2515 3.58995 35.4608C4.10346 35.6701 4.65349 35.7752 5.20799 35.77C20.83 35.714 36.4529 35.741 52.0759 35.741H52.073Z" fill="#FF779D"/>
<path d="M28.968 13.778C28.8128 13.9198 28.6502 14.0533 28.4809 14.178C25.2319 16.287 25.2479 21.754 29.1369 23.866C29.5719 24.103 29.659 24.319 29.485 24.778C28.768 26.6719 27.6973 28.4122 26.3299 29.906C25.8617 30.4876 25.2164 30.9005 24.4922 31.0821C23.7679 31.2637 23.0042 31.2039 22.317 30.912C22.117 30.837 21.9019 30.779 21.7059 30.689C20.9974 30.3508 20.2235 30.172 19.4384 30.1651C18.6534 30.1581 17.8763 30.3233 17.162 30.649C14.823 31.659 13.5869 31.377 11.8139 29.132C10.497 27.5778 9.49986 25.7788 8.87985 23.8382C8.25984 21.8977 8.0292 19.8539 8.20102 17.824C8.25025 16.5665 8.63743 15.3457 9.32199 14.2898C10.0066 13.2339 10.9631 12.3821 12.0909 11.824C12.7434 11.4427 13.4761 11.2193 14.2303 11.1716C14.9846 11.1238 15.7395 11.253 16.4349 11.549C17.2642 11.9316 18.1671 12.1283 19.0804 12.1252C19.9937 12.1221 20.8954 11.9193 21.722 11.531C23.0054 11.0266 24.4223 10.9743 25.7393 11.3828C27.0564 11.7912 28.1951 12.636 28.968 13.778Z" fill="#FF779D"/>
<path d="M47.413 26.337V28.923C47.413 29.989 47.287 30.079 46.137 29.791V20.252H47.168L47.296 20.999C47.9153 20.6356 48.5708 20.338 49.252 20.111C49.9002 19.9813 50.5735 20.0926 51.1455 20.424C51.7175 20.7554 52.1491 21.2841 52.359 21.911C52.7851 22.996 52.7851 24.202 52.359 25.287C52.1798 25.7568 51.8857 26.1742 51.5037 26.5011C51.1216 26.8279 50.6637 27.0539 50.1719 27.1583C49.68 27.2628 49.1698 27.2423 48.6879 27.0988C48.2059 26.9554 47.7676 26.6934 47.413 26.337ZM47.338 23.695L47.3781 23.703C47.3911 23.963 47.39 24.225 47.42 24.482C47.461 24.9058 47.642 25.3039 47.9344 25.6135C48.2269 25.923 48.6142 26.1262 49.035 26.1911C49.4559 26.256 49.8864 26.1789 50.2585 25.9719C50.6307 25.7649 50.9232 25.4398 51.09 25.048C51.2758 24.6297 51.377 24.1787 51.3875 23.7211C51.3979 23.2635 51.3175 22.8083 51.151 22.382C51.0275 22.0075 50.7893 21.6814 50.4702 21.4497C50.1511 21.218 49.7674 21.0925 49.373 21.091C48.968 21.092 48.5736 21.2211 48.2463 21.4598C47.9191 21.6985 47.6757 22.0346 47.551 22.42C47.4454 22.8387 47.3728 23.265 47.334 23.695H47.338Z" fill="#FF779D"/>
<path d="M36.823 27.007C37.286 25.642 37.7301 24.333 38.1741 23.025C38.7461 21.342 39.339 19.665 39.874 17.971C40.031 17.478 40.345 17.478 40.72 17.508C41.095 17.538 41.526 17.343 41.72 17.938C42.685 20.838 43.689 23.727 44.675 26.62C44.7076 26.7414 44.7313 26.8651 44.746 26.99C43.591 27.232 43.512 27.19 43.163 26.19C42.927 25.515 42.8631 24.576 42.3881 24.246C41.8801 23.897 40.973 24.116 40.24 24.109C39.069 24.098 39.07 24.109 38.713 25.23C38.613 25.54 38.513 25.849 38.413 26.158C38.077 27.178 38.076 27.178 36.823 27.007ZM42.168 23.051L40.761 18.851L39.402 23.051H42.168Z" fill="#FF779D"/>
<path d="M55.3979 21.227C55.765 20.7316 56.2805 20.3662 56.8694 20.1837C57.4583 20.0011 58.0901 20.0111 58.673 20.212C59.2209 20.4025 59.7011 20.7493 60.0542 21.2095C60.4073 21.6698 60.618 22.2234 60.66 22.802C60.8413 23.7483 60.7041 24.7279 60.27 25.588C60.077 25.9904 59.7938 26.3429 59.4425 26.6181C59.0912 26.8934 58.6813 27.0841 58.2444 27.1753C57.8075 27.2665 57.3555 27.2558 56.9235 27.144C56.4914 27.0323 56.0909 26.8226 55.7531 26.531C55.6921 26.481 55.6229 26.443 55.4399 26.32V29.854H54.2469V20.254H55.2209L55.3979 21.227ZM55.424 23.684H55.473C55.4607 23.9222 55.4607 24.1608 55.473 24.399C55.4849 24.8377 55.6523 25.2578 55.9454 25.5844C56.2385 25.9111 56.6382 26.1229 57.073 26.182C57.5276 26.269 57.9983 26.1843 58.394 25.9441C58.7898 25.7039 59.0823 25.3255 59.215 24.882C59.3851 24.4567 59.4659 24.001 59.4521 23.5432C59.4384 23.0853 59.3304 22.6353 59.135 22.221C58.977 21.8472 58.7012 21.5354 58.3495 21.333C57.9978 21.1306 57.5895 21.0488 57.187 21.1C56.7871 21.1597 56.4148 21.3397 56.1195 21.616C55.8243 21.8923 55.62 22.2519 55.5339 22.647C55.4679 22.989 55.46 23.34 55.421 23.684H55.424Z" fill="#FF779D"/>
<path d="M70.2449 17.903L69.945 18.803C69.6798 18.7057 69.4053 18.6356 69.1259 18.594C68.4953 18.5009 67.854 18.5093 67.226 18.619C66.988 18.685 66.7741 18.8183 66.61 19.0029C66.446 19.1876 66.3388 19.4156 66.3013 19.6597C66.2638 19.9038 66.2977 20.1536 66.3987 20.3789C66.4998 20.6042 66.6637 20.7956 66.8709 20.93C67.477 21.3041 68.1124 21.6285 68.7709 21.9C69.2011 22.0537 69.5886 22.3073 69.9016 22.6401C70.2145 22.9729 70.444 23.3752 70.571 23.814C70.7369 24.4289 70.6713 25.0833 70.3867 25.6531C70.1021 26.2228 69.6182 26.6683 69.0269 26.905C68.4208 27.1483 67.7718 27.2667 67.1188 27.2529C66.4658 27.2392 65.8223 27.0936 65.227 26.825C64.502 26.53 65.108 26.077 65.108 25.645C65.618 25.8485 66.1473 25.9997 66.6879 26.096C67.284 26.1663 67.8884 26.1079 68.46 25.925C68.698 25.8287 68.9065 25.6716 69.0648 25.4694C69.223 25.2672 69.3255 25.0269 69.3619 24.7728C69.3982 24.5186 69.3672 24.2593 69.2719 24.0209C69.1766 23.7824 69.0204 23.5732 68.8189 23.414C68.4105 23.1304 67.9751 22.8879 67.519 22.69C67.0243 22.4721 66.5442 22.2222 66.082 21.942C65.7429 21.7133 65.4676 21.4022 65.2817 21.0379C65.0958 20.6736 65.0054 20.2681 65.0192 19.8593C65.033 19.4506 65.1505 19.052 65.3605 18.7011C65.5706 18.3501 65.8662 18.0583 66.2199 17.853C66.843 17.529 67.5365 17.364 68.2387 17.3727C68.9409 17.3815 69.6301 17.5636 70.2449 17.903Z" fill="#FF779D"/>
<path d="M79.77 20.06C80.2349 20.0518 80.6962 20.1423 81.1236 20.3254C81.5511 20.5085 81.9349 20.7801 82.2497 21.1224C82.5646 21.4646 82.8033 21.8697 82.9502 22.3108C83.0971 22.752 83.1488 23.2193 83.1019 23.682C83.1249 24.1458 83.0522 24.6095 82.8883 25.044C82.7244 25.4785 82.4729 25.8747 82.1493 26.2078C81.8256 26.5409 81.4368 26.8038 81.0072 26.9802C80.5776 27.1566 80.1163 27.2426 79.652 27.233C79.1927 27.2388 78.7372 27.1489 78.3146 26.9689C77.8919 26.789 77.5115 26.523 77.1974 26.1879C76.8832 25.8528 76.6424 25.4559 76.4901 25.0226C76.3378 24.5892 76.2775 24.1289 76.313 23.671C76.2816 23.2017 76.3483 22.7311 76.5089 22.289C76.6695 21.847 76.9204 21.4433 77.2456 21.1035C77.5708 20.7638 77.9632 20.4956 78.3978 20.3159C78.8324 20.1362 79.2998 20.0491 79.77 20.06ZM81.834 23.673C81.7615 23.2337 81.6612 22.7996 81.5339 22.373C81.4178 21.985 81.1803 21.6445 80.8563 21.4015C80.5323 21.1586 80.139 21.0259 79.734 21.023C79.3296 21.0209 78.9346 21.1451 78.6041 21.3781C78.2736 21.6111 78.024 21.9414 77.89 22.323C77.7156 22.734 77.6249 23.1756 77.6234 23.6221C77.6218 24.0685 77.7094 24.5108 77.881 24.923C78.0123 25.3065 78.2584 25.6404 78.5859 25.8792C78.9135 26.118 79.3066 26.2503 79.7119 26.258C80.107 26.2544 80.4911 26.1278 80.8109 25.8957C81.1306 25.6635 81.3702 25.3375 81.496 24.963C81.6357 24.5405 81.7486 24.1097 81.834 23.673Z" fill="#FF779D"/>
<path d="M94.5931 23.877H89.911C89.711 25.767 91.011 26.41 94.033 25.977C94.383 26.813 94.3609 26.877 93.5089 27.058C93.0644 27.155 92.6118 27.2106 92.157 27.224C91.4603 27.3129 90.754 27.1631 90.1534 26.799C89.5527 26.4348 89.0933 25.8779 88.85 25.219C88.5592 24.4548 88.4997 23.6218 88.6791 22.8241C88.8585 22.0263 89.269 21.2991 89.859 20.733C90.3394 20.3567 90.9179 20.1264 91.5254 20.0695C92.133 20.0126 92.7441 20.1315 93.286 20.412C93.8255 20.7925 94.2384 21.3262 94.4713 21.9439C94.7043 22.5616 94.7468 23.2349 94.5931 23.877ZM93.416 22.905C93.39 21.741 92.751 20.994 91.795 20.971C91.2917 20.981 90.813 21.1902 90.4639 21.5528C90.1148 21.9154 89.9239 22.4017 89.933 22.905H93.416Z" fill="#FF779D"/>
<path d="M24.2121 5.39099C24.1799 6.66453 23.7293 7.89204 22.9299 8.88394C22.1305 9.87584 21.0267 10.577 19.7891 10.879C18.8601 11.023 18.7171 10.879 18.8321 9.94299C18.9896 8.70865 19.5264 7.55363 20.3682 6.63727C21.2101 5.72091 22.3156 5.08838 23.5322 4.82699C24.1122 4.70599 24.2981 4.90599 24.2121 5.39099Z" fill="#FF779D"/>
<path d="M72.511 21.272C71.411 21.114 71.4109 21.114 71.5239 20.262C71.6569 20.242 71.801 20.216 71.946 20.202C72.091 20.188 72.246 20.184 72.427 20.175C72.4428 19.6295 72.5305 19.0885 72.688 18.566C72.777 18.361 73.3409 18.36 73.7569 18.248V20.168H75.485V21.16H73.834C73.834 22.643 73.7999 24.045 73.8499 25.444C73.8709 26.027 74.335 26.224 74.884 26.166C75.236 26.128 75.448 26.184 75.484 26.619C75.52 27.054 75.3049 27.133 74.9709 27.195C74.6731 27.2963 74.3545 27.3204 74.0448 27.2649C73.7351 27.2095 73.4445 27.0764 73.2003 26.878C72.9561 26.6797 72.7662 26.4226 72.6484 26.1309C72.5306 25.8391 72.4889 25.5223 72.5269 25.21C72.4879 24.126 72.5169 23.041 72.5169 21.956L72.511 21.272Z" fill="#FF779D"/>
<path d="M35.7519 11.323C35.7519 10.499 35.7649 9.67401 35.7459 8.85001C35.7369 8.48401 35.829 8.26201 36.235 8.26801C36.9685 8.23539 37.7034 8.25075 38.4349 8.314C39.0144 8.37276 39.5549 8.63329 39.9618 9.05005C40.3687 9.46681 40.6161 10.0133 40.661 10.594C40.832 12.242 40.246 13.572 38.954 13.962C38.0307 14.1691 37.086 14.2648 36.14 14.247C36.02 14.253 35.7819 13.918 35.7729 13.731C35.7279 12.93 35.7519 12.126 35.7519 11.323ZM36.568 11.21C36.568 11.86 36.548 12.51 36.582 13.159C36.5911 13.254 36.6224 13.3455 36.6734 13.4261C36.7245 13.5068 36.7939 13.5742 36.8759 13.623C37.3969 13.7438 37.9431 13.6914 38.4315 13.4735C38.9199 13.2557 39.3239 12.8843 39.582 12.416C39.8046 11.9896 39.9078 11.5111 39.8808 11.0309C39.8539 10.5508 39.6978 10.0868 39.4289 9.68799C39.1397 9.3473 38.7648 9.09001 38.3429 8.94269C37.921 8.79537 37.4673 8.76338 37.0289 8.85001C36.6509 8.86401 36.5579 9.05599 36.5649 9.39099C36.5759 9.99599 36.567 10.603 36.567 11.21H36.568Z" fill="#FF779D"/>
<path d="M84.665 20.234H85.616L85.766 21.334C86.339 20.521 86.936 19.934 87.973 20.113V21.213C86.425 21.419 85.908 22.004 85.894 23.57C85.884 24.713 85.894 25.856 85.894 27.04H84.667L84.665 20.234Z" fill="#FF779D"/>
<path d="M45.667 10.043C46.185 9.843 46.445 10.007 46.567 10.574C46.748 11.434 47.006 12.274 47.282 13.322C47.626 12.244 47.897 11.338 48.214 10.448C48.285 10.248 48.5189 10.111 48.6789 9.948C48.8549 10.121 49.118 10.262 49.192 10.471C49.4662 11.3538 49.7863 12.2216 50.151 13.071C50.383 12.235 50.639 11.405 50.839 10.561C50.96 10.051 51.192 9.84999 51.786 10.076C51.514 10.9313 51.2419 11.7873 50.9699 12.644C50.8656 13.0426 50.7318 13.433 50.5699 13.812C50.5166 13.9129 50.442 14.001 50.3512 14.0701C50.2603 14.1392 50.1554 14.1876 50.0439 14.212C49.8969 14.226 49.644 14 49.578 13.828C49.269 12.973 49.008 12.101 48.683 11.087C48.361 12.033 48.1069 12.861 47.7889 13.664C47.683 13.9152 47.4831 14.1151 47.2319 14.221C46.8139 14.36 46.7659 13.961 46.6809 13.679C46.3309 12.5163 45.9846 11.3527 45.6419 10.188C45.6339 10.142 45.659 10.096 45.667 10.043Z" fill="#FF779D"/>
<path d="M70.6171 10.244V7.996H71.3981V14.319L70.4841 13.887C70.1397 14.1962 69.6904 14.3622 69.2277 14.351C68.7651 14.3399 68.3241 14.1524 67.995 13.827C67.635 13.3891 67.4221 12.849 67.3862 12.2833C67.3503 11.7176 67.4933 11.1549 67.7951 10.675C68.3921 9.79902 69.2051 9.66302 70.6171 10.244ZM70.6541 12.105H70.6221C70.6311 11.9535 70.6311 11.8015 70.6221 11.65C70.618 11.3766 70.5172 11.1136 70.3377 10.9075C70.1581 10.7013 69.9114 10.5654 69.6412 10.5238C69.371 10.4823 69.0948 10.5377 68.8616 10.6803C68.6284 10.823 68.4532 11.0435 68.3671 11.303C68.2419 11.5811 68.1827 11.8844 68.1941 12.1892C68.2056 12.494 68.2873 12.792 68.433 13.06C68.5269 13.2703 68.6867 13.4443 68.8882 13.5558C69.0897 13.6673 69.3221 13.7102 69.5501 13.678C69.7794 13.6684 69.9995 13.5855 70.1783 13.4415C70.357 13.2975 70.4848 13.1 70.543 12.878C70.6003 12.6233 70.6375 12.3645 70.6541 12.104V12.105Z" fill="#FF779D"/>
<path d="M91.5979 14.169C91.5979 13.544 91.5979 12.919 91.5979 12.293C91.6002 12.0327 91.5859 11.7725 91.5549 11.514C91.4619 10.838 91.1139 10.502 90.5659 10.534C90.2905 10.5459 90.0304 10.6637 89.84 10.863C89.6495 11.0622 89.5434 11.3274 89.5439 11.603C89.5119 12.341 89.533 13.08 89.527 13.819C89.5191 13.9437 89.5048 14.0678 89.484 14.191L88.771 14.23V7.991H89.505V10.462C89.776 10.278 89.9289 10.162 90.0959 10.062C90.2879 9.93429 90.5079 9.85511 90.7372 9.83121C90.9665 9.80731 91.1981 9.8394 91.4122 9.92477C91.6264 10.0101 91.8165 10.1462 91.9664 10.3213C92.1164 10.4964 92.2215 10.7053 92.2729 10.93C92.3973 11.9406 92.4308 12.9604 92.3729 13.977C92.3729 14.098 91.9929 14.213 91.7889 14.331L91.5979 14.169Z" fill="#FF779D"/>
<path d="M58.65 12.099C58.6256 11.8049 58.6645 11.5089 58.764 11.2311C58.8635 10.9532 59.0213 10.6999 59.2269 10.4882C59.4325 10.2764 59.6811 10.1112 59.9559 10.0035C60.2307 9.89585 60.5253 9.84827 60.82 9.86399C61.1038 9.85747 61.3858 9.91115 61.6473 10.0215C61.9088 10.1319 62.1441 10.2964 62.3374 10.5043C62.5307 10.7122 62.6778 10.9586 62.7689 11.2275C62.86 11.4963 62.8931 11.7814 62.8661 12.064C62.894 12.358 62.8588 12.6545 62.763 12.9339C62.6672 13.2132 62.5131 13.4689 62.3106 13.6839C62.1082 13.8989 61.8621 14.0683 61.5891 14.1808C61.316 14.2932 61.0222 14.3461 60.727 14.336C60.4376 14.3462 60.1495 14.294 59.882 14.1829C59.6146 14.0719 59.3741 13.9045 59.1771 13.6923C58.9801 13.4801 58.831 13.228 58.7401 12.953C58.6491 12.6781 58.6184 12.3869 58.65 12.099ZM62.05 12.11C62.056 11.157 61.5011 10.472 60.7351 10.485C59.9911 10.497 59.474 11.145 59.458 12.085C59.4309 12.2791 59.4438 12.4766 59.4958 12.6656C59.5478 12.8545 59.6379 13.0308 59.7605 13.1837C59.883 13.3366 60.0355 13.4629 60.2086 13.5548C60.3817 13.6466 60.5717 13.7022 60.7671 13.718C61.1492 13.6725 61.498 13.4784 61.7381 13.1777C61.9782 12.8769 62.0903 12.4937 62.05 12.111V12.11Z" fill="#FF779D"/>
<path d="M74.2809 12.114C74.2513 11.82 74.2858 11.5231 74.3818 11.2436C74.4779 10.9642 74.6333 10.7088 74.8374 10.4952C75.0415 10.2815 75.2894 10.1145 75.5641 10.0057C75.8388 9.89694 76.1339 9.84893 76.429 9.865C76.7188 9.85696 77.0069 9.91128 77.2739 10.0243C77.5409 10.1373 77.7805 10.3063 77.9764 10.5199C78.1724 10.7336 78.3203 10.9868 78.4099 11.2625C78.4995 11.5382 78.5289 11.8299 78.496 12.118C78.5159 12.4131 78.4727 12.7091 78.3695 12.9862C78.2663 13.2634 78.1054 13.5155 77.8973 13.7257C77.6893 13.9359 77.4389 14.0995 77.1628 14.2056C76.8868 14.3117 76.5912 14.3578 76.2959 14.341C76.0118 14.345 75.73 14.2884 75.4695 14.1749C75.2089 14.0615 74.9756 13.8938 74.7849 13.6831C74.5943 13.4723 74.4507 13.2234 74.3638 12.9529C74.2769 12.6823 74.2486 12.3963 74.2809 12.114ZM77.6659 12.075C77.6509 11.137 77.1249 10.475 76.3899 10.475C75.6279 10.475 75.08 11.16 75.084 12.117C75.0613 12.306 75.0764 12.4976 75.1284 12.6807C75.1804 12.8638 75.2683 13.0347 75.387 13.1836C75.5056 13.3324 75.6526 13.4562 75.8195 13.5478C75.9863 13.6394 76.1696 13.6969 76.3589 13.717C76.5539 13.6985 76.7433 13.6409 76.9155 13.5476C77.0878 13.4543 77.2396 13.3272 77.3616 13.1739C77.4836 13.0206 77.5734 12.8442 77.6257 12.6554C77.678 12.4666 77.6916 12.2692 77.6659 12.075Z" fill="#FF779D"/>
<path d="M45.393 12.084C45.4201 12.3767 45.3844 12.6719 45.2884 12.9498C45.1923 13.2277 45.0381 13.4819 44.8361 13.6955C44.6341 13.9091 44.3889 14.0771 44.1167 14.1884C43.8446 14.2998 43.5518 14.3517 43.258 14.341C42.9696 14.3504 42.6826 14.2981 42.4161 14.1875C42.1495 14.0769 41.9097 13.9105 41.7128 13.6996C41.5159 13.4887 41.3664 13.238 41.2743 12.9645C41.1823 12.6911 41.1497 12.4011 41.179 12.114C41.1521 11.8213 41.1881 11.5263 41.2845 11.2487C41.3808 10.9711 41.5354 10.7172 41.7378 10.5042C41.9403 10.2912 42.186 10.1239 42.4583 10.0135C42.7306 9.90304 43.0234 9.85207 43.3171 9.86398C43.6056 9.85122 43.8934 9.90112 44.1608 10.0102C44.4282 10.1193 44.6689 10.285 44.8661 10.496C45.0634 10.707 45.2127 10.9581 45.3036 11.2322C45.3946 11.5064 45.425 11.7969 45.393 12.084ZM44.574 12.12C44.574 11.146 44.0361 10.464 43.2741 10.472C42.9049 10.5548 42.575 10.7613 42.3392 11.0571C42.1033 11.3529 41.9755 11.7205 41.9769 12.0988C41.9783 12.4772 42.1088 12.8437 42.3468 13.1378C42.5849 13.4319 42.9163 13.6358 43.2861 13.716C43.4756 13.6963 43.6595 13.6393 43.8269 13.5483C43.9944 13.4574 44.1422 13.3342 44.2619 13.1859C44.3816 13.0375 44.4708 12.867 44.5243 12.6841C44.5779 12.5012 44.5948 12.3095 44.574 12.12Z" fill="#FF779D"/>
<path d="M96.8341 12.27H93.974C93.987 13.524 94.631 13.844 96.509 13.578C96.716 13.898 96.704 14.129 96.269 14.222C95.8311 14.392 95.3537 14.4333 94.8931 14.3412C94.4325 14.2491 94.0079 14.0273 93.669 13.702C93.361 13.3446 93.1658 12.9038 93.1084 12.4355C93.0509 11.9672 93.1336 11.4923 93.346 11.071C93.5253 10.6089 93.8753 10.2334 94.3237 10.0222C94.7721 9.8109 95.2845 9.78006 95.755 9.936C96.1946 10.119 96.5495 10.4605 96.7493 10.8928C96.9492 11.325 96.9794 11.8165 96.8341 12.27ZM94.034 11.563H96.104C95.994 10.756 95.624 10.394 95.031 10.443C94.7514 10.4618 94.4905 10.5898 94.3045 10.7993C94.1185 11.0089 94.0224 11.2832 94.0369 11.563H94.034Z" fill="#FF779D"/>
<path d="M65.829 11.41C65.748 10.45 65.389 10.323 63.829 10.667C63.561 10.391 63.617 10.208 63.97 10.048C64.2448 9.86611 64.5655 9.76581 64.8949 9.75862C65.2244 9.75144 65.5492 9.83768 65.8317 10.0074C66.1142 10.1771 66.3428 10.4233 66.4911 10.7175C66.6395 11.0117 66.7016 11.342 66.6701 11.67C66.6921 12.489 66.6701 13.31 66.6701 14.283L65.7381 13.962C65.5501 14.0836 65.3509 14.1867 65.1431 14.27C64.9772 14.3424 64.7983 14.3803 64.6172 14.3814C64.4362 14.3824 64.2568 14.3465 64.0901 14.276C63.9234 14.2054 63.7728 14.1017 63.6475 13.971C63.5222 13.8404 63.4249 13.6856 63.3614 13.516C63.2979 13.3465 63.2695 13.1658 63.2781 12.985C63.2867 12.8042 63.3321 12.627 63.4114 12.4643C63.4907 12.3016 63.6024 12.1567 63.7395 12.0385C63.8767 11.9204 64.0364 11.8314 64.209 11.777C64.7398 11.617 65.2811 11.4943 65.829 11.41ZM65.8221 11.979C65.3538 12.0537 64.8994 12.1983 64.474 12.408C64.3608 12.5309 64.2799 12.6801 64.2387 12.8421C64.1975 13.0041 64.1973 13.1739 64.2381 13.336C64.3091 13.536 64.7941 13.711 65.0711 13.681C65.7201 13.611 65.9451 13.099 65.8221 11.979Z" fill="#FF779D"/>
<path d="M56.049 14.224H55.257C55.257 13.594 55.257 12.995 55.257 12.395C55.2657 12.1129 55.2597 11.8305 55.239 11.549C55.169 10.898 54.801 10.524 54.269 10.53C53.9831 10.5386 53.7117 10.6582 53.5125 10.8636C53.3132 11.069 53.2019 11.3439 53.202 11.63C53.177 12.471 53.196 13.314 53.196 14.191H52.42V9.90399L53.342 10.304C53.335 10.309 53.454 10.22 53.579 10.14C53.8011 9.96897 54.0661 9.86241 54.3448 9.83206C54.6236 9.80171 54.9052 9.84873 55.1589 9.96795C55.4127 10.0872 55.6287 10.274 55.7832 10.5079C55.9377 10.7418 56.0249 11.0138 56.035 11.294C56.111 12.243 56.049 13.202 56.049 14.224Z" fill="#FF779D"/>
<path d="M80.2269 10.29C80.4372 10.1441 80.6634 10.0223 80.901 9.92699C81.1171 9.84792 81.3486 9.81994 81.5774 9.8452C81.8062 9.87047 82.0259 9.94831 82.2196 10.0727C82.4133 10.197 82.5756 10.3644 82.6938 10.5619C82.812 10.7594 82.8829 10.9815 82.901 11.211C82.9374 11.5564 82.95 11.9039 82.939 12.251C82.944 12.877 82.939 13.503 82.939 14.179H82.139C82.139 13.579 82.139 13 82.139 12.42C82.139 12.16 82.1389 11.898 82.1219 11.639C82.0609 10.921 81.722 10.539 81.171 10.539C81.0239 10.5403 80.8784 10.5708 80.7432 10.6288C80.6079 10.6868 80.4857 10.7711 80.3833 10.8768C80.2809 10.9825 80.2006 11.1075 80.147 11.2445C80.0934 11.3816 80.0675 11.5279 80.0709 11.675C80.0369 12.238 80.058 12.803 80.056 13.367C80.056 13.624 80.056 13.882 80.056 14.186H79.299V9.933L80.2269 10.29Z" fill="#FF779D"/>
<path d="M86.0601 10.685L85.5601 10.252L86.208 9.69501C86.28 9.43501 85.986 8.67299 86.954 8.80899L87.026 9.792C87.353 10.158 88.176 9.55901 88.11 10.458C88.035 10.498 87.999 10.533 87.96 10.536C86.991 10.611 86.991 10.611 86.991 11.608C86.991 11.976 86.98 12.346 86.991 12.713C87.025 13.526 87.133 13.632 87.968 13.699C88.126 14.053 88.103 14.288 87.623 14.338C86.802 14.423 86.307 14.088 86.25 13.259C86.191 12.399 86.2371 11.531 86.2371 10.667L86.0601 10.685Z" fill="#FF779D"/>
<path d="M57.115 7.97699H57.871V9.41501C57.871 10.805 57.854 12.195 57.88 13.585C57.891 14.145 57.711 14.358 57.115 14.163V7.97699Z" fill="#FF779D"/>
</g>
<defs>
<clipPath id="clip0">
<rect width="104.275" height="36.756" fill="white"/>
</clipPath>
</defs>
</svg>
