<svg width="93" height="33" viewBox="0 0 93 33" fill="none" xmlns="http://www.w3.org/2000/svg">
<g clip-path="url(#clip0)">
<path d="M46.4425 32.9749C32.5079 32.9749 18.5723 32.9497 4.63773 33C4.02336 33.0132 3.41273 32.9008 2.84278 32.6695C2.27282 32.4383 1.75541 32.093 1.32185 31.6546C0.888281 31.2163 0.547652 30.6939 0.320449 30.1191C0.0932465 29.5443 -0.0157842 28.9291 4.12658e-05 28.3107C0.0312568 25.1316 0.0214471 21.9506 0.0232308 18.7706C0.0262037 14.0684 0.0262037 9.36658 0.0232308 4.66503C-0.0139593 4.0431 0.0801 3.42029 0.299328 2.83762C0.518556 2.25496 0.857915 1.72567 1.29506 1.28459C1.73221 0.843512 2.25729 0.500666 2.83559 0.278633C3.41389 0.0565989 4.03235 -0.0395786 4.65025 -0.00357776H88.3186C88.9413 -0.0485971 89.5662 0.0414265 90.1513 0.26044C90.7365 0.479453 91.2681 0.822339 91.7103 1.26593C92.1524 1.70952 92.4949 2.2435 92.7145 2.83176C92.9341 3.42002 93.0257 4.04887 92.9831 4.67583C92.9831 12.5766 92.9581 20.4773 92.9982 28.3781C93.0115 28.9866 92.9022 29.5916 92.6767 30.1564C92.4513 30.7213 92.1145 31.2342 91.6866 31.6644C91.2588 32.0945 90.7487 32.4329 90.1873 32.659C89.6259 32.8852 89.0248 32.9945 88.4203 32.9803C74.4316 32.9581 60.439 32.9563 46.4425 32.9749ZM46.4425 32.0887H88.4756C88.9617 32.1179 89.4483 32.0427 89.9033 31.868C90.3583 31.6933 90.7712 31.4232 91.1145 31.0755C91.4578 30.7279 91.7237 30.3107 91.8946 29.8517C92.0654 29.3926 92.1373 28.9022 92.1055 28.4131C92.1055 20.5123 92.1055 12.6116 92.1055 4.71082C92.1551 4.19676 92.0912 3.67802 91.9183 3.19176C91.7454 2.70549 91.4678 2.26377 91.1054 1.89822C90.7429 1.53267 90.3046 1.25234 89.8219 1.07737C89.3392 0.902398 88.824 0.83711 88.3133 0.886152H4.65559C4.15497 0.846495 3.65172 0.916075 3.18028 1.09017C2.70883 1.26426 2.2803 1.53875 1.9239 1.89488C1.56751 2.251 1.29174 2.68036 1.11532 3.15364C0.938899 3.62693 0.86602 4.13299 0.901712 4.63722C0.901712 12.538 0.934711 20.4387 0.878523 28.3395C0.876019 28.8373 0.971799 29.3307 1.16039 29.7909C1.34898 30.2512 1.62658 30.6691 1.97703 31.0204C2.32749 31.3716 2.74384 31.6493 3.20183 31.8372C3.65983 32.0251 4.15038 32.1194 4.64492 32.1148C18.5778 32.0645 32.5114 32.0887 46.4451 32.0887H46.4425Z" fill="white"/>
<path d="M25.8358 12.37C25.6974 12.4973 25.5524 12.6172 25.4014 12.7292C22.5037 14.6226 22.518 19.531 25.9865 21.4272C26.3744 21.64 26.4521 21.8339 26.2969 22.246C25.6574 23.9464 24.7025 25.5088 23.483 26.8499C23.0654 27.3721 22.4899 27.7429 21.8439 27.9059C21.198 28.0689 20.5169 28.0153 19.904 27.7532C19.7256 27.6858 19.5338 27.6338 19.359 27.553C18.727 27.2493 18.0368 27.0888 17.3367 27.0826C16.6365 27.0764 15.9434 27.2247 15.3063 27.517C13.2202 28.4238 12.1179 28.1706 10.5366 26.1551C9.362 24.7597 8.47272 23.1445 7.91975 21.4023C7.36678 19.6601 7.16107 17.8251 7.31432 16.0026C7.35823 14.8737 7.70354 13.7775 8.31408 12.8295C8.92462 11.8816 9.77772 11.1168 10.7836 10.6157C11.3656 10.2734 12.019 10.0728 12.6917 10.03C13.3644 9.9871 14.0377 10.1031 14.6579 10.3688C15.3975 10.7124 16.2028 10.889 17.0174 10.8862C17.8319 10.8834 18.6361 10.7013 19.3733 10.3526C20.5179 9.89982 21.7816 9.8529 22.9563 10.2196C24.1309 10.5863 25.1465 11.3447 25.8358 12.37V12.37Z" fill="white"/>
<path d="M42.2863 23.6457V25.9674C42.2863 26.9245 42.174 27.0053 41.1483 26.7467V18.1825H42.0678L42.182 18.8531C42.7344 18.5269 43.319 18.2597 43.9265 18.0559C44.5046 17.9395 45.1051 18.0394 45.6153 18.3369C46.1255 18.6344 46.5103 19.1091 46.6976 19.672C47.0776 20.6461 47.0776 21.7288 46.6976 22.7029C46.5377 23.1247 46.2755 23.4995 45.9347 23.793C45.594 24.0865 45.1856 24.2893 44.7469 24.3831C44.3083 24.4768 43.8532 24.4585 43.4234 24.3297C42.9936 24.2008 42.6026 23.9657 42.2863 23.6457V23.6457ZM42.2195 21.2736L42.2552 21.2808C42.2668 21.5143 42.2659 21.7495 42.2927 21.9802C42.3292 22.3608 42.4906 22.7182 42.7514 22.9961C43.0123 23.2739 43.3577 23.4564 43.733 23.5147C44.1084 23.573 44.4924 23.5037 44.8242 23.3179C45.1561 23.132 45.417 22.8402 45.5658 22.4884C45.7315 22.1128 45.8217 21.7079 45.8311 21.2971C45.8404 20.8862 45.7687 20.4776 45.6202 20.0948C45.51 19.7586 45.2976 19.4658 45.013 19.2578C44.7285 19.0498 44.3862 18.9371 44.0345 18.9357C43.6732 18.9366 43.3215 19.0525 43.0296 19.2669C42.7377 19.4812 42.5207 19.7829 42.4095 20.1289C42.3153 20.5048 42.2505 20.8876 42.2159 21.2736H42.2195Z" fill="white"/>
<path d="M32.8414 24.2472C33.2544 23.0217 33.6504 21.8465 34.0464 20.6721C34.5566 19.1611 35.0854 17.6555 35.5626 16.1346C35.7026 15.6919 35.9826 15.692 36.317 15.7189C36.6515 15.7458 37.0359 15.5708 37.2089 16.1049C38.0696 18.7086 38.9651 21.3024 39.8445 23.8998C39.8735 24.0088 39.8946 24.1198 39.9077 24.2319C38.8776 24.4492 38.8071 24.4115 38.4959 23.5137C38.2854 22.9077 38.2284 22.0646 37.8048 21.7684C37.3517 21.455 36.5427 21.6516 35.889 21.6453C34.8446 21.6355 34.8455 21.6453 34.5271 22.6518C34.4379 22.9301 34.3487 23.2075 34.2595 23.485C33.9598 24.4007 33.9589 24.4007 32.8414 24.2472ZM37.6085 20.6955L36.3536 16.9246L35.1416 20.6955H37.6085Z" fill="white"/>
<path d="M49.4079 19.0579C49.7353 18.6131 50.195 18.285 50.7202 18.1211C51.2455 17.9573 51.8089 17.9662 52.3288 18.1466C52.8175 18.3176 53.2457 18.629 53.5607 19.0422C53.8756 19.4554 54.0635 19.9525 54.101 20.4719C54.2626 21.3215 54.1403 22.201 53.7532 22.9732C53.581 23.3345 53.3284 23.651 53.0151 23.8981C52.7018 24.1452 52.3362 24.3164 51.9465 24.3983C51.5569 24.4802 51.1538 24.4706 50.7685 24.3703C50.3831 24.27 50.026 24.0816 49.7246 23.8199C49.6702 23.775 49.6086 23.7409 49.4453 23.6304V26.8033H48.3813V18.1843H49.25L49.4079 19.0579ZM49.4311 21.2638H49.4748C49.4639 21.4776 49.4639 21.6919 49.4748 21.9057C49.4855 22.2996 49.6348 22.6768 49.8962 22.97C50.1576 23.2633 50.514 23.4534 50.9018 23.5065C51.3073 23.5847 51.7271 23.5086 52.08 23.2929C52.433 23.0773 52.6939 22.7375 52.8122 22.3394C52.964 21.9576 53.036 21.5484 53.0237 21.1373C53.0114 20.7263 52.9152 20.3222 52.7409 19.9503C52.6 19.6147 52.354 19.3348 52.0403 19.1531C51.7266 18.9713 51.3625 18.8979 51.0035 18.9439C50.6468 18.9975 50.3147 19.159 50.0514 19.4071C49.7881 19.6552 49.6059 19.978 49.5292 20.3328C49.4703 20.6398 49.4633 20.9549 49.4285 21.2638H49.4311Z" fill="white"/>
<path d="M62.6496 16.0735L62.3821 16.8816C62.1455 16.7942 61.9007 16.7313 61.6515 16.6939C61.0891 16.6103 60.5171 16.6179 59.9571 16.7164C59.7448 16.7756 59.554 16.8953 59.4077 17.0611C59.2614 17.2268 59.1658 17.4316 59.1324 17.6507C59.0989 17.8699 59.1291 18.0941 59.2192 18.2964C59.3094 18.4988 59.4556 18.6706 59.6404 18.7912C60.1809 19.1271 60.7476 19.4184 61.3349 19.6621C61.7186 19.8001 62.0642 20.0278 62.3433 20.3266C62.6224 20.6253 62.8271 20.9866 62.9404 21.3805C63.0883 21.9326 63.0298 22.5201 62.776 23.0317C62.5221 23.5432 62.0906 23.9431 61.5632 24.1556C61.0227 24.3741 60.4439 24.4804 59.8615 24.468C59.2791 24.4557 58.7052 24.325 58.1742 24.0838C57.5276 23.819 58.068 23.4122 58.068 23.0244C58.5229 23.2071 58.995 23.3428 59.4772 23.4293C60.0088 23.4924 60.5478 23.44 61.0576 23.2758C61.2699 23.1893 61.4558 23.0482 61.597 22.8667C61.7381 22.6852 61.8296 22.4695 61.862 22.2413C61.8944 22.0131 61.8667 21.7803 61.7817 21.5662C61.6968 21.3522 61.5574 21.1643 61.3777 21.0214C61.0135 20.7667 60.6252 20.549 60.2184 20.3714C59.7771 20.1757 59.349 19.9514 58.9367 19.6998C58.6343 19.4945 58.3887 19.2152 58.223 18.8881C58.0572 18.561 57.9766 18.1969 57.9889 17.8299C58.0012 17.463 58.106 17.1051 58.2933 16.7901C58.4806 16.475 58.7443 16.213 59.0597 16.0286C59.6154 15.7378 60.234 15.5896 60.8603 15.5975C61.4865 15.6053 62.1012 15.7689 62.6496 16.0735V16.0735Z" fill="white"/>
<path d="M71.1448 18.0101C71.5594 18.0028 71.9708 18.084 72.352 18.2484C72.7333 18.4128 73.0756 18.6567 73.3564 18.9639C73.6372 19.2712 73.8501 19.6349 73.9811 20.031C74.1121 20.4271 74.1582 20.8466 74.1164 21.262C74.1369 21.6784 74.0721 22.0947 73.9259 22.4848C73.7797 22.875 73.5554 23.2306 73.2668 23.5297C72.9781 23.8288 72.6314 24.0648 72.2482 24.2232C71.865 24.3815 71.4536 24.4588 71.0395 24.4501C70.6299 24.4554 70.2236 24.3746 69.8467 24.2131C69.4698 24.0515 69.1305 23.8127 68.8503 23.5118C68.5701 23.211 68.3553 22.8547 68.2195 22.4656C68.0837 22.0765 68.0299 21.6633 68.0615 21.2521C68.0336 20.8308 68.0931 20.4083 68.2363 20.0114C68.3795 19.6145 68.6032 19.252 68.8933 18.947C69.1834 18.642 69.5333 18.4012 69.9209 18.2399C70.3086 18.0786 70.7254 18.0003 71.1448 18.0101V18.0101ZM72.9856 21.2539C72.9209 20.8596 72.8315 20.4697 72.718 20.0868C72.6144 19.7384 72.4026 19.4327 72.1136 19.2146C71.8247 18.9964 71.4738 18.8773 71.1127 18.8747C70.752 18.8729 70.3997 18.9843 70.1049 19.1935C69.8102 19.4028 69.5875 19.6993 69.468 20.0419C69.3125 20.4109 69.2316 20.8074 69.2303 21.2082C69.2289 21.609 69.307 22.0061 69.46 22.3762C69.5771 22.7205 69.7966 23.0203 70.0887 23.2347C70.3809 23.4491 70.7315 23.5678 71.0929 23.5748C71.4453 23.5716 71.7879 23.4578 72.0731 23.2495C72.3583 23.0411 72.5719 22.7484 72.6841 22.4121C72.8088 22.0328 72.9095 21.646 72.9856 21.2539V21.2539Z" fill="white"/>
<path d="M84.365 21.437H80.1892C80.0109 23.1339 81.1702 23.7112 83.8655 23.3225C84.1776 24.073 84.158 24.1305 83.3981 24.293C83.0016 24.3801 82.598 24.43 82.1923 24.442C81.571 24.5219 80.941 24.3874 80.4053 24.0604C79.8697 23.7335 79.4599 23.2335 79.2429 22.6419C78.9835 21.9558 78.9305 21.208 79.0905 20.4917C79.2505 19.7755 79.6166 19.1226 80.1429 18.6143C80.5713 18.2765 81.0872 18.0697 81.629 18.0186C82.1709 17.9675 82.716 18.0743 83.1993 18.3261C83.6804 18.6678 84.0486 19.1469 84.2564 19.7015C84.4642 20.2561 84.5021 20.8606 84.365 21.437V21.437ZM83.3152 20.5644C83.2921 19.5193 82.7221 18.8486 81.8694 18.828C81.4206 18.837 80.9937 19.0248 80.6823 19.3504C80.371 19.6759 80.2007 20.1126 80.2088 20.5644H83.3152Z" fill="white"/>
<path d="M21.594 4.84009C21.5653 5.98349 21.1634 7.08556 20.4504 7.9761C19.7374 8.86665 18.753 9.49611 17.6492 9.76729C16.8207 9.89658 16.6931 9.76729 16.7957 8.92693C16.9362 7.81872 17.4149 6.78173 18.1657 5.95901C18.9166 5.13629 19.9025 4.5684 20.9876 4.33373C21.5048 4.22509 21.6707 4.40465 21.594 4.84009Z" fill="white"/>
<path d="M64.6705 19.0983C63.6894 18.9564 63.6894 18.9564 63.7902 18.1915C63.9088 18.1735 64.0373 18.1502 64.1666 18.1376C64.296 18.1251 64.4342 18.1215 64.5956 18.1134C64.6097 17.6236 64.688 17.1379 64.8284 16.6688C64.9077 16.4847 65.4107 16.4839 65.7818 16.3833V18.1071H67.3229V18.9977H65.8504C65.8504 20.3292 65.8201 21.5879 65.8647 22.8439C65.8834 23.3674 66.2973 23.5443 66.787 23.4922C67.1009 23.4581 67.29 23.5083 67.3221 23.8989C67.3542 24.2894 67.1624 24.3604 66.8645 24.416C66.5988 24.507 66.3147 24.5286 66.0385 24.4788C65.7623 24.4291 65.5031 24.3095 65.2853 24.1315C65.0675 23.9534 64.8981 23.7226 64.7931 23.4606C64.6881 23.1987 64.6508 22.9143 64.6848 22.6339C64.65 21.6606 64.6758 20.6865 64.6758 19.7124L64.6705 19.0983Z" fill="white"/>
<path d="M31.8862 10.1659C31.8862 9.42615 31.8978 8.68546 31.8809 7.94566C31.8729 7.61706 31.9549 7.41775 32.317 7.42314C32.9713 7.39386 33.6267 7.40764 34.2791 7.46443C34.7959 7.51719 35.278 7.7511 35.6409 8.12526C36.0038 8.49943 36.2245 8.99007 36.2645 9.51144C36.417 10.991 35.8943 12.1851 34.742 12.5353C33.9186 12.7212 33.0761 12.8071 32.2323 12.7912C32.1253 12.7965 31.913 12.4958 31.905 12.3279C31.8648 11.6087 31.8862 10.8869 31.8862 10.1659ZM32.614 10.0645C32.614 10.6481 32.5962 11.2316 32.6266 11.8143C32.6346 11.8996 32.6625 11.9818 32.7081 12.0542C32.7537 12.1266 32.8155 12.1871 32.8887 12.2309C33.3533 12.3394 33.8405 12.2923 34.2761 12.0967C34.7117 11.9011 35.0719 11.5677 35.3022 11.1472C35.5007 10.7645 35.5927 10.3348 35.5687 9.90374C35.5447 9.47263 35.4054 9.05605 35.1656 8.69801C34.9077 8.39214 34.5733 8.16114 34.197 8.02887C33.8207 7.89661 33.4161 7.86789 33.0251 7.94566C32.688 7.95823 32.6051 8.1306 32.6113 8.43137C32.6211 8.97454 32.6132 9.51952 32.6132 10.0645H32.614Z" fill="white"/>
<path d="M75.5104 18.1663H76.3585L76.4923 19.1539C77.0033 18.424 77.5358 17.897 78.4607 18.0577V19.0453C77.0801 19.2303 76.619 19.7555 76.6065 21.1614C76.5976 22.1876 76.6065 23.2138 76.6065 24.2769H75.5121L75.5104 18.1663Z" fill="white"/>
<path d="M40.7292 9.01675C41.1911 8.83719 41.4231 8.98443 41.5319 9.49349C41.6933 10.2656 41.9234 11.0198 42.1695 11.9607C42.4763 10.9928 42.718 10.1794 43.0007 9.38036C43.0641 9.2008 43.2727 9.0778 43.4154 8.93146C43.5724 9.08678 43.807 9.21338 43.873 9.40102C44.1176 10.1936 44.403 10.9727 44.7283 11.7353C44.9352 10.9847 45.1635 10.2396 45.3419 9.48182C45.4498 9.02394 45.6568 8.84346 46.1865 9.04637C45.9439 9.8143 45.7013 10.5828 45.4587 11.3519C45.3656 11.7099 45.2464 12.0604 45.102 12.4006C45.0544 12.4912 44.9879 12.5703 44.9069 12.6324C44.8258 12.6944 44.7323 12.7379 44.6328 12.7597C44.5017 12.7723 44.2761 12.5694 44.2173 12.415C43.9417 11.6473 43.7089 10.8645 43.419 9.95407C43.1318 10.8034 42.9053 11.5468 42.6217 12.2677C42.5272 12.4933 42.3489 12.6727 42.1249 12.7678C41.7521 12.8926 41.7092 12.5344 41.6334 12.2812C41.3213 11.2373 41.0124 10.1926 40.7068 9.14692C40.6997 9.10562 40.722 9.06433 40.7292 9.01675Z" fill="white"/>
<path d="M62.9814 9.19719V7.17889H63.678V12.8558L62.8627 12.4679C62.5556 12.7455 62.1549 12.8945 61.7422 12.8845C61.3296 12.8745 60.9363 12.7062 60.6429 12.414C60.3218 12.0209 60.1318 11.536 60.0998 11.0281C60.0678 10.5202 60.1954 10.015 60.4645 9.58415C60.997 8.79766 61.7221 8.67556 62.9814 9.19719ZM63.0144 10.868H62.9859C62.9938 10.732 62.9938 10.5955 62.9859 10.4595C62.9822 10.2141 62.8923 9.97793 62.7322 9.79285C62.5721 9.60777 62.352 9.48574 62.111 9.44841C61.87 9.41108 61.6237 9.46086 61.4157 9.58892C61.2077 9.71697 61.0515 9.91502 60.9747 10.148C60.863 10.3977 60.8102 10.67 60.8204 10.9436C60.8306 11.2173 60.9035 11.4848 61.0335 11.7254C61.1172 11.9142 61.2598 12.0704 61.4395 12.1705C61.6192 12.2706 61.8264 12.3092 62.0298 12.2803C62.2343 12.2716 62.4306 12.1972 62.59 12.068C62.7494 11.9387 62.8634 11.7614 62.9153 11.562C62.9665 11.3334 62.9996 11.101 63.0144 10.8671V10.868Z" fill="white"/>
<path d="M81.6937 12.7211C81.6937 12.16 81.6937 11.5989 81.6937 11.0368C81.6958 10.8031 81.683 10.5695 81.6554 10.3374C81.5725 9.73049 81.2621 9.42885 80.7733 9.45758C80.5277 9.46823 80.2957 9.57406 80.1259 9.75294C79.956 9.93181 79.8614 10.1699 79.8619 10.4173C79.8333 11.0799 79.8521 11.7434 79.8467 12.4069C79.8397 12.5188 79.8269 12.6303 79.8084 12.7409L79.1725 12.7759V7.17444H79.8271V9.39291C80.0688 9.22772 80.2052 9.12358 80.3542 9.03379C80.5253 8.91915 80.7216 8.84806 80.9261 8.8266C81.1306 8.80515 81.3372 8.83396 81.5281 8.91061C81.7191 8.98726 81.8887 9.10943 82.0224 9.26663C82.1561 9.42383 82.2499 9.61136 82.2958 9.81311C82.4067 10.7205 82.4366 11.636 82.3849 12.5487C82.3849 12.6574 82.0461 12.7606 81.8641 12.8666L81.6937 12.7211Z" fill="white"/>
<path d="M52.3082 10.8627C52.2865 10.5986 52.3212 10.3329 52.4099 10.0834C52.4987 9.83397 52.6394 9.60655 52.8228 9.41645C53.0061 9.22634 53.2279 9.07796 53.4729 8.9813C53.718 8.88463 53.9808 8.84192 54.2436 8.85603C54.4967 8.85017 54.7482 8.89837 54.9815 8.99746C55.2147 9.09655 55.4245 9.24429 55.5969 9.43091C55.7693 9.61754 55.9005 9.83882 55.9818 10.0802C56.063 10.3216 56.0926 10.5775 56.0684 10.8312C56.0933 11.0952 56.062 11.3614 55.9765 11.6122C55.8911 11.863 55.7536 12.0926 55.5731 12.2856C55.3925 12.4787 55.1731 12.6307 54.9295 12.7317C54.686 12.8326 54.4239 12.8802 54.1607 12.8711C53.9026 12.8802 53.6456 12.8333 53.4071 12.7336C53.1686 12.6339 52.9541 12.4837 52.7783 12.2932C52.6026 12.1026 52.4697 11.8762 52.3886 11.6294C52.3075 11.3826 52.28 11.1211 52.3082 10.8627V10.8627ZM55.3406 10.8725C55.346 10.0169 54.851 9.4019 54.1679 9.41357C53.5043 9.42434 53.0431 10.0061 53.0289 10.8501C53.0047 11.0243 53.0162 11.2017 53.0626 11.3713C53.109 11.5409 53.1893 11.6993 53.2986 11.8365C53.4079 11.9738 53.5439 12.0872 53.6983 12.1696C53.8527 12.2521 54.0222 12.302 54.1964 12.3162C54.5372 12.2754 54.8483 12.1011 55.0625 11.8311C55.2766 11.5611 55.3766 11.217 55.3406 10.8734V10.8725Z" fill="white"/>
<path d="M66.2491 10.8761C66.2227 10.6121 66.2535 10.3456 66.3391 10.0947C66.4248 9.8438 66.5634 9.61455 66.7454 9.4227C66.9275 9.23085 67.1485 9.08093 67.3935 8.98327C67.6386 8.88561 67.9017 8.84251 68.1649 8.85694C68.4234 8.84972 68.6804 8.89849 68.9185 8.99993C69.1566 9.10138 69.3703 9.25315 69.5451 9.44495C69.7199 9.63674 69.8517 9.86408 69.9317 10.1116C70.0116 10.3592 70.0378 10.6211 70.0084 10.8797C70.0262 11.1446 69.9877 11.4104 69.8956 11.6592C69.8036 11.9081 69.6601 12.1344 69.4745 12.3231C69.289 12.5119 69.0657 12.6587 68.8194 12.754C68.5732 12.8492 68.3096 12.8906 68.0462 12.8755C67.7928 12.8791 67.5415 12.8283 67.3092 12.7264C67.0768 12.6246 66.8687 12.474 66.6986 12.2848C66.5286 12.0956 66.4005 11.8722 66.323 11.6293C66.2455 11.3863 66.2203 11.1296 66.2491 10.8761ZM69.2681 10.8411C69.2547 9.99895 68.7856 9.40459 68.1301 9.40459C67.4505 9.40459 66.9618 10.0196 66.9654 10.8788C66.9452 11.0485 66.9586 11.2205 67.005 11.3849C67.0514 11.5493 67.1298 11.7027 67.2356 11.8364C67.3414 11.97 67.4725 12.0812 67.6213 12.1634C67.7701 12.2456 67.9336 12.2973 68.1024 12.3153C68.2764 12.2987 68.4452 12.247 68.5989 12.1632C68.7525 12.0794 68.8879 11.9653 68.9967 11.8277C69.1055 11.6901 69.1856 11.5317 69.2323 11.3622C69.2789 11.1927 69.2911 11.0155 69.2681 10.8411V10.8411Z" fill="white"/>
<path d="M40.4848 10.8492C40.5089 11.112 40.4771 11.377 40.3915 11.6265C40.3058 11.876 40.1683 12.1042 39.9881 12.296C39.8079 12.4878 39.5893 12.6387 39.3465 12.7386C39.1038 12.8385 38.8427 12.8852 38.5806 12.8755C38.3234 12.884 38.0674 12.8371 37.8298 12.7377C37.5921 12.6384 37.3782 12.4891 37.2025 12.2997C37.0269 12.1103 36.8936 11.8853 36.8115 11.6397C36.7294 11.3942 36.7004 11.1338 36.7265 10.8761C36.7025 10.6134 36.7346 10.3485 36.8205 10.0993C36.9065 9.85001 37.0443 9.6221 37.2249 9.43084C37.4054 9.23957 37.6245 9.08937 37.8674 8.99023C38.1103 8.8911 38.3714 8.84533 38.6333 8.85603C38.8907 8.84458 39.1473 8.88938 39.3859 8.98733C39.6244 9.08528 39.839 9.23407 40.0149 9.42347C40.1908 9.61286 40.324 9.83835 40.4051 10.0845C40.4862 10.3306 40.5134 10.5915 40.4848 10.8492ZM39.7544 10.8815C39.7544 10.007 39.2746 9.39472 38.595 9.4019C38.2657 9.4763 37.9716 9.66162 37.7612 9.92723C37.5508 10.1928 37.4368 10.5228 37.438 10.8625C37.4393 11.2022 37.5557 11.5313 37.768 11.7953C37.9804 12.0593 38.2759 12.2425 38.6057 12.3144C38.7748 12.2967 38.9387 12.2456 39.0881 12.1639C39.2375 12.0822 39.3692 11.9716 39.476 11.8384C39.5828 11.7053 39.6623 11.5522 39.7101 11.388C39.7578 11.2237 39.7729 11.0516 39.7544 10.8815V10.8815Z" fill="white"/>
<path d="M86.3636 11.0162H83.8128C83.8244 12.142 84.3988 12.4293 86.0737 12.1905C86.2583 12.4778 86.2476 12.6852 85.8596 12.7687C85.4691 12.9213 85.0434 12.9584 84.6326 12.8757C84.2218 12.793 83.843 12.5939 83.5408 12.3018C83.2661 11.981 83.092 11.5852 83.0408 11.1648C82.9895 10.7443 83.0632 10.318 83.2527 9.93969C83.4126 9.52483 83.7248 9.18768 84.1247 8.99802C84.5246 8.80835 84.9816 8.78066 85.4012 8.92067C85.7933 9.08501 86.1098 9.39158 86.2881 9.77966C86.4663 10.1677 86.4933 10.609 86.3636 11.0162V11.0162ZM83.8663 10.3814H85.7125C85.6143 9.65689 85.2844 9.33188 84.7555 9.37588C84.5062 9.39275 84.2735 9.50765 84.1076 9.69579C83.9417 9.88393 83.856 10.1302 83.8689 10.3814H83.8663Z" fill="white"/>
<path d="M58.7111 10.244C58.6389 9.38211 58.3187 9.26811 56.9274 9.57695C56.6883 9.32916 56.7383 9.16484 57.0531 9.02119C57.2982 8.85792 57.5842 8.76787 57.878 8.76142C58.1719 8.75497 58.4616 8.8324 58.7135 8.98475C58.9654 9.1371 59.1693 9.35813 59.3016 9.6223C59.434 9.88646 59.4893 10.183 59.4612 10.4775C59.4809 11.2128 59.4612 11.9499 59.4612 12.8234L58.63 12.5352C58.4624 12.6444 58.2847 12.737 58.0994 12.8118C57.9514 12.8768 57.7918 12.9108 57.6304 12.9118C57.4689 12.9127 57.3089 12.8805 57.1602 12.8172C57.0116 12.7538 56.8772 12.6607 56.7655 12.5434C56.6537 12.4261 56.5669 12.2871 56.5103 12.1349C56.4536 11.9827 56.4284 11.8205 56.436 11.6581C56.4437 11.4958 56.4842 11.3367 56.5549 11.1906C56.6257 11.0445 56.7253 10.9144 56.8476 10.8083C56.9699 10.7023 57.1123 10.6223 57.2663 10.5735C57.7397 10.4299 58.2225 10.3198 58.7111 10.244V10.244ZM58.7049 10.7549C58.2873 10.822 57.882 10.9518 57.5026 11.14C57.4016 11.2504 57.3295 11.3844 57.2927 11.5298C57.256 11.6753 57.2558 11.8277 57.2922 11.9732C57.3555 12.1528 57.7881 12.3099 58.0351 12.283C58.614 12.2201 58.8146 11.7604 58.7049 10.7549V10.7549Z" fill="white"/>
<path d="M49.9885 12.7705H49.2821C49.2821 12.2049 49.2821 11.6671 49.2821 11.1284C49.2899 10.8751 49.2846 10.6216 49.2661 10.3689C49.2037 9.78438 48.8755 9.44859 48.401 9.45397C48.146 9.46168 47.9039 9.56912 47.7262 9.7535C47.5486 9.93788 47.4493 10.1847 47.4494 10.4416C47.4271 11.1966 47.444 11.9535 47.444 12.7409H46.752V8.89194L47.5743 9.25106C47.568 9.25554 47.6741 9.17567 47.7856 9.10384C47.9837 8.95028 48.2201 8.8546 48.4686 8.82736C48.7172 8.80011 48.9684 8.84232 49.1947 8.94936C49.421 9.05641 49.6136 9.22415 49.7515 9.43416C49.8893 9.64418 49.967 9.88836 49.9761 10.1399C50.0438 10.9919 49.9885 11.8529 49.9885 12.7705Z" fill="white"/>
<path d="M71.5522 9.2385C71.7398 9.10747 71.9415 8.99813 72.1534 8.91258C72.3462 8.84159 72.5527 8.81647 72.7567 8.83915C72.9607 8.86184 73.1567 8.93173 73.3295 9.04336C73.5022 9.15499 73.647 9.30532 73.7524 9.48262C73.8578 9.65992 73.9211 9.85938 73.9372 10.0654C73.9696 10.3755 73.9809 10.6874 73.971 10.9991C73.9755 11.5611 73.971 12.1232 73.971 12.7301H73.2576C73.2576 12.1914 73.2576 11.6716 73.2576 11.1508C73.2576 10.9174 73.2575 10.6822 73.2424 10.4496C73.188 9.80501 72.8857 9.46204 72.3943 9.46204C72.263 9.4632 72.1333 9.49061 72.0127 9.54268C71.8921 9.59475 71.783 9.67042 71.6917 9.76532C71.6004 9.86023 71.5287 9.97246 71.4809 10.0955C71.4331 10.2185 71.41 10.3499 71.4131 10.482C71.3828 10.9874 71.4016 11.4947 71.3998 12.0011C71.3998 12.2318 71.3998 12.4634 71.3998 12.7364H70.7246V8.91798L71.5522 9.2385Z" fill="white"/>
<path d="M76.7545 9.59312L76.3086 9.20436L76.8865 8.70429C76.9507 8.47086 76.6885 7.78672 77.5518 7.90882L77.616 8.79137C77.9077 9.11997 78.6417 8.58219 78.5828 9.38933C78.5159 9.42524 78.4838 9.45666 78.449 9.45936C77.5848 9.52669 77.5848 9.52669 77.5848 10.4218C77.5848 10.7522 77.575 11.0844 77.5848 11.4139C77.6151 12.1438 77.7115 12.239 78.4562 12.2991C78.5971 12.617 78.5766 12.8279 78.1485 12.8728C77.4163 12.9491 76.9748 12.6484 76.9239 11.9041C76.8713 11.132 76.9124 10.3527 76.9124 9.57695L76.7545 9.59312Z" fill="white"/>
<path d="M50.9393 7.16183H51.6136V8.45291C51.6136 9.70087 51.5984 10.9488 51.6216 12.1968C51.6314 12.6995 51.4709 12.8908 50.9393 12.7157V7.16183Z" fill="white"/>
</g>
<defs>
<clipPath id="clip0">
<rect width="93" height="33" fill="white"/>
</clipPath>
</defs>
</svg>
