<svg width="325" height="329" viewBox="0 0 325 329" fill="none" xmlns="http://www.w3.org/2000/svg">
<g clip-path="url(#clip0)">
<path d="M190.641 164.769L318.748 36.6593C327.084 28.3263 327.084 14.853 318.748 6.51995C310.415 -1.81307 296.941 -1.81307 288.608 6.51995L160.498 134.63L32.3921 6.51995C24.0552 -1.81307 10.5857 -1.81307 2.25269 6.51995C-6.08423 14.853 -6.08423 28.3263 2.25269 36.6593L130.359 164.769L2.25269 292.879C-6.08423 301.212 -6.08423 314.686 2.25269 323.019C6.40554 327.175 11.8659 329.264 17.3224 329.264C22.7789 329.264 28.2353 327.175 32.3921 323.019L160.498 194.909L288.608 323.019C292.765 327.175 298.221 329.264 303.678 329.264C309.134 329.264 314.591 327.175 318.748 323.019C327.084 314.686 327.084 301.212 318.748 292.879L190.641 164.769Z" fill="#606060"/>
</g>
<defs>
<clipPath id="clip0">
<rect width="329" height="329" fill="white" transform="translate(-4)"/>
</clipPath>
</defs>
</svg>
