<svg width="135" height="135" viewBox="0 0 135 135" fill="none" xmlns="http://www.w3.org/2000/svg">
<path d="M67.5151 32.8877C48.3606 32.8877 32.9105 48.3412 32.9105 67.5C32.9105 86.6588 48.3606 102.112 67.5151 102.112C86.6695 102.112 102.12 86.6588 102.12 67.5C102.12 48.3412 86.6695 32.8877 67.5151 32.8877ZM67.5151 90.0025C55.1369 90.0025 45.0176 79.911 45.0176 67.5C45.0176 55.089 55.1068 44.9975 67.5151 44.9975C79.9233 44.9975 90.0125 55.089 90.0125 67.5C90.0125 79.911 79.8932 90.0025 67.5151 90.0025ZM111.607 31.4719C111.607 35.9603 107.992 39.5451 103.535 39.5451C99.0477 39.5451 95.4637 35.9302 95.4637 31.4719C95.4637 27.0136 99.0778 23.3987 103.535 23.3987C107.992 23.3987 111.607 27.0136 111.607 31.4719ZM134.526 39.6656C134.014 28.8511 131.544 19.2717 123.623 11.3793C115.733 3.48683 106.155 1.01668 95.3433 0.47445C84.1999 -0.15815 50.8001 -0.15815 39.6567 0.47445C28.8748 0.986556 19.2975 3.45671 11.3767 11.3492C3.45594 19.2416 1.01645 28.821 0.474345 39.6354C-0.158115 50.7813 -0.158115 84.1886 0.474345 95.3344C0.986336 106.149 3.45594 115.728 11.3767 123.621C19.2975 131.513 28.8447 133.983 39.6567 134.526C50.8001 135.158 84.1999 135.158 95.3433 134.526C106.155 134.013 115.733 131.543 123.623 123.621C131.514 115.728 133.984 106.149 134.526 95.3344C135.158 84.1886 135.158 50.8114 134.526 39.6656ZM120.13 107.294C117.781 113.198 113.233 117.747 107.3 120.126C98.4152 123.651 77.3332 122.837 67.5151 122.837C57.6969 122.837 36.5848 123.621 27.7303 120.126C21.8274 117.777 17.2797 113.228 14.9004 107.294C11.3767 98.4071 12.1899 77.3204 12.1899 67.5C12.1899 57.6796 11.4069 36.5628 14.9004 27.7064C17.2496 21.8021 21.7973 17.2534 27.7303 14.8736C36.6149 11.3492 57.6969 12.1625 67.5151 12.1625C77.3332 12.1625 98.4454 11.3793 107.3 14.8736C113.203 17.2233 117.75 21.772 120.13 27.7064C123.653 36.5929 122.84 57.6796 122.84 67.5C122.84 77.3204 123.653 98.4372 120.13 107.294Z" fill="white"/>
</svg>
