<svg xmlns="http://www.w3.org/2000/svg" xmlns:xlink="http://www.w3.org/1999/xlink" width="110" height="36" viewBox="0 0 110 36">
  <defs>
    <linearGradient id="linear-gradient" y1="0.5" x2="1" y2="0.5" gradientUnits="objectBoundingBox">
      <stop offset="0.01" stop-color="#ff779d"/>
      <stop offset="0.182" stop-color="#fe7a97"/>
      <stop offset="0.402" stop-color="#fe8387"/>
      <stop offset="0.649" stop-color="#fd926d"/>
      <stop offset="0.913" stop-color="#fba848"/>
      <stop offset="1" stop-color="#fbb03b"/>
    </linearGradient>
  </defs>
  <g id="Group_816" data-name="Group 816" transform="translate(-6361 13127)">
    <rect id="Rectangle_1868" data-name="Rectangle 1868" width="110" height="36" transform="translate(6361 -13127)" fill="none"/>
    <g id="Group_815" data-name="Group 815" transform="translate(6397.272 -13117.87)">
      <path id="Path_368" data-name="Path 368" d="M1156.04,705.738a5.733,5.733,0,0,1,2.275,2.227,6.509,6.509,0,0,1,.819,3.287,6.575,6.575,0,0,1-.819,3.3,5.708,5.708,0,0,1-2.275,2.239,6.9,6.9,0,0,1-3.359.795h-7.946V721.8h-5.3V704.943h13.243A6.9,6.9,0,0,1,1156.04,705.738Zm-3.383,7.272a1.47,1.47,0,0,0,.831-.494,1.89,1.89,0,0,0,.349-1.264,1.847,1.847,0,0,0-.349-1.24,1.472,1.472,0,0,0-.831-.494,6.163,6.163,0,0,0-1.18-.1h-6.742v3.684h6.742A6.123,6.123,0,0,0,1152.657,713.009Z" transform="translate(-1139.438 -704.702)" fill="#606060"/>
      <path id="Path_369" data-name="Path 369" d="M1363.811,717.568q-2.552-2.167-2.552-6.525t2.552-6.5q2.552-2.143,8.042-2.143,5.465,0,8.03,2.155t2.564,6.489q0,4.358-2.564,6.525t-8.03,2.167Q1366.364,719.735,1363.811,717.568Zm12.159-3.371a4.024,4.024,0,0,0,1.18-3.154,3.954,3.954,0,0,0-1.18-3.118q-1.18-1.047-4.117-1.047t-4.118,1.047a3.953,3.953,0,0,0-1.18,3.118,4.023,4.023,0,0,0,1.18,3.154q1.18,1.06,4.118,1.059T1375.971,714.2Z" transform="translate(-1340.263 -702.399)" fill="#606060"/>
      <path id="Path_370" data-name="Path 370" d="M1627.966,721.8h-5.3v-9.824l-5.8,9.824h-3.612l-5.8-9.848V721.8h-5.3V704.943h6.79l6.14,10.763,6.116-10.763h6.766Z" transform="translate(-1558.356 -704.702)" fill="#606060"/>
    </g>
    <path id="Path_921" data-name="Path 921" d="M785.945,652.456l-16.963,12.635c-3.713,2.784-7.649,2.918-10.567,0h0a7.472,7.472,0,0,1,0-10.567l2.068-2.068-2.068-2.068a7.472,7.472,0,0,1,0-10.567h0c2.918-2.918,6.837-2.916,10.567,0Zm-11.829,0-8.009-5.092V657.5Z" transform="translate(5604.773 -13761.634)" fill="url(#linear-gradient)"/>
  </g>
</svg>
