<svg width="148" height="120" viewBox="0 0 148 120" fill="none" xmlns="http://www.w3.org/2000/svg">
<path d="M148 14.2064C142.458 16.6547 136.58 18.2621 130.561 18.9751C136.821 15.2219 141.636 9.29067 143.902 2.21295C137.942 5.74167 131.421 8.22779 124.622 9.56387C121.782 6.53881 118.35 4.12873 114.538 2.48345C110.725 0.838169 106.615 -0.00714804 102.461 4.55289e-05C85.6996 4.55289e-05 72.0955 13.5601 72.0955 30.2874C72.0955 32.6642 72.3637 34.9807 72.8887 37.1927C47.6501 35.9275 25.282 23.8738 10.3031 5.54503C7.6877 10.0132 6.19586 15.2219 6.19586 20.7744C6.19586 31.2784 11.5542 40.5511 19.6998 45.984C14.8771 45.8365 10.1601 44.5372 5.9447 42.195V42.5813C5.9447 57.253 16.4121 69.496 30.2957 72.2845C25.8243 73.4925 21.136 73.6696 16.5859 72.8027C20.4514 84.8384 31.6686 93.594 44.9497 93.8483C34.5597 101.959 21.4693 106.811 7.24015 106.811C4.82062 106.808 2.40325 106.667 0 106.387C13.436 114.979 29.3996 120 46.5454 120C102.395 120 132.931 73.8352 132.931 33.8013C132.931 32.4918 132.931 31.1823 132.836 29.8823C138.778 25.5932 143.909 20.2855 147.991 14.2064H148Z" fill="#4B2FBB"/>
</svg>
